/* XPM */
static const char * const union_xpm[] = {
"32 32 5 1",
" 	c None",
".	c #000000",
"+	c #808000",
"@	c #C0C000",
"#	c #FFFF00",
"                                ",
"              ...............   ",
"             .+++++++++++++..   ",
"            .+++++++++++++.@.   ",
"           .+++++++++++++.@@.   ",
"          ...............@@@.   ",
"          .#############.@@@.   ",
"          .#############.@@@.   ",
"      .....#############.@@@.   ",
"     .++++.#############.@@@.   ",
"    .+++++.#############.@@@.   ",
"   .++++++........######.@@@.   ",
"  .+++++++++++++..######.@@@.   ",
" .+++++++++++++.@.######.@@@.   ",
"...............@@.######.@@@.   ",
".#############.@@.######.@@.    ",
".#############.@@.######.@.     ",
".#############.@@.######..      ",
".#############.@@........       ",
".#############.@@@@@.           ",
".#############.@@@@@.           ",
".#############.@@@@@.           ",
".#############.@@@@@.           ",
".#############.@@@@.            ",
".#############.@@@.             ",
".#############.@@.              ",
".#############.@.               ",
".#############..                ",
"...............                 ",
"                                ",
"                                ",
"                                "};
